<svg enable-background="new 0 0 24 24" viewBox="0 0 24 24" xmlns="http://www.w3.org/2000/svg"><path d="m20.4 5.3c-3.8-4-10.1-4.1-14-.2l-4.9 5.6c-.6.7-.6 1.7 0 2.5l4.9 5.6c3.8 3.8 10.1 3.8 14-.2 3.4-3.6 3.4-9.6 0-13.3zm-1.6 7.6h-1.9l-.7 2.5v.1c-.2.4-.5.6-.9.6s-.7-.2-.9-.6v-.1l-1.1-4-1.1 4v.1c-.4.7-1.5.7-1.8 0v-.1l-.7-2.5h-2.1c-.4 0-.8-.4-.8-.8s.4-.8.8-.8h1.5l-.6-2.2c-.1-.4.1-.9.6-1 .4-.1.9.1 1 .6l1.1 4 1.1-3.9v-.1c.4-.7 1.5-.7 1.8 0v.1l1.1 3.9 1.1-4c.1-.4.6-.7 1-.6s.7.6.6 1l-.6 2.1h1.5c.4 0 .8.4.8.8s-.4.9-.8.9z" fill="#b0b8c1"></path></svg>