<svg xmlns="http://www.w3.org/2000/svg" viewBox="0 0 200 200" width="200" height="200" preserveAspectRatio="xMidYMid meet" style="width: 100%; height: 100%; transform: translate3d(0px, 0px, 0px);"><defs><clipPath id="__lottie_element_7"><rect width="200" height="200" x="0" y="0"></rect></clipPath><clipPath id="__lottie_element_9"><path d="M0,0 L200,0 L200,200 L0,200z"></path></clipPath></defs><g clip-path="url(#__lottie_element_7)"><g clip-path="url(#__lottie_element_9)" transform="matrix(1.1299999952316284,0,0,1.1299999952316284,-13,-13)" opacity="1" style="display: block;"><g transform="matrix(1,0,0,1,-15.765998840332031,-15.765998840332031)" opacity="1" style="display: block;"><g opacity="1" transform="matrix(1,0,0,1,115.76599884033203,115.76599884033203)"><path stroke-linecap="round" stroke-linejoin="miter" fill-opacity="0" stroke-miterlimit="10" stroke="rgb(165,175,185)" stroke-opacity="1" stroke-width="15" d=" M0,78.26599884033203 C43.224998474121094,78.26599884033203 78.26599884033203,43.224998474121094 78.26599884033203,0 C78.26599884033203,-43.224998474121094 43.224998474121094,-78.26599884033203 0,-78.26599884033203 C-43.224998474121094,-78.26599884033203 -78.26599884033203,-43.224998474121094 -78.26599884033203,0 C-78.26599884033203,43.224998474121094 -43.224998474121094,78.26599884033203 0,78.26599884033203z"></path></g></g><g transform="matrix(0.4288700520992279,0.903366208076477,-0.903366208076477,0.4288700520992279,88.5089340209961,56.42948913574219)" opacity="1" style="display: block;"><g opacity="1" transform="matrix(1,0,0,1,25.111000061035156,19.240999221801758)"><path stroke-linecap="round" stroke-linejoin="miter" fill-opacity="0" stroke-miterlimit="10" stroke="rgb(255,44,76)" stroke-opacity="1" stroke-width="15" d=" M17.611000061035156,-11.741000175476074 C17.611000061035156,-11.741000175476074 -17.611000061035156,11.741000175476074 -17.611000061035156,11.741000175476074"></path></g></g><g transform="matrix(1,0,0,1,92.5,51.926998138427734)" opacity="1" style="display: block;"><g opacity="1" transform="matrix(1,0,0,1,0,0)"><path stroke-linecap="round" stroke-linejoin="miter" fill-opacity="0" stroke-miterlimit="10" stroke="rgb(75,89,106)" stroke-opacity="1" stroke-width="15" d=" M7.5,7.5 C7.5,7.5 7.5,46.29399871826172 7.5,46.29399871826172"></path></g></g></g></g></svg>