<svg viewBox="0 0 24 24" xmlns="http://www.w3.org/2000/svg"><path d="m22.19 15.7c0-6.02-5.19-10.83-11.39-10.09-4.54.56-8.34 4.17-8.89 8.8-.28 2.32.19 4.54 1.3 6.39.46.83 1.39 1.39 2.41 1.39h12.78c1.02 0 1.94-.56 2.41-1.39.93-1.48 1.39-3.24 1.39-5.09z" fill="#00bc79"></path><path d="m7.28 3.2 1.67 2.78h6.11l1.67-2.78c.37-.65-.09-1.39-.83-1.39h-7.87c-.74 0-1.2.74-.74 1.39z" fill="#00aa67"></path><path d="m15.89 11.35-1.67 6.2c-.09.19-.28.19-.37 0l-1.67-6.11c-.09-.19-.28-.19-.37 0l-1.67 6.11c-.09.19-.28.19-.37 0l-1.67-6.2m6.95 3.15h2.5m-8.61 0h-2.5" fill="none" stroke="#fff" stroke-linecap="round" stroke-linejoin="round" stroke-width="1.6"></path></svg>