<svg xmlns="http://www.w3.org/2000/svg" viewBox="0 0 24 24" class=" "><g fill="#EC4452" fill-rule="evenodd"><path d="M12.902 8.306L9.91 5.669a.98.98 0 00-1.296 0l-6.082 5.36a.98.98 0 00-.332.735v7.482a1.96 1.96 0 001.96 1.96h15.68a1.96 1.96 0 001.96-1.96V3.776a.98.98 0 00-1.628-.735l-5.974 5.265a.98.98 0 01-1.296 0" opacity=".4"></path><path d="M20.172 3.04l-5.975 5.266a.98.98 0 01-1.295 0L9.91 5.668a.98.98 0 00-1.296 0l-6.082 5.36a.98.98 0 00-.332.735v2.558l6.414-5.653a.98.98 0 011.296 0l2.992 2.636a.98.98 0 001.295 0l7.603-6.7v-.83c0-.842-.995-1.292-1.628-.734"></path></g></svg>