<svg fill="none" height="24" viewBox="0 0 24 24" width="24" xmlns="http://www.w3.org/2000/svg"><path d="m18.56 22.37c1.02 0 1.94-.56 2.41-1.39.93-1.48 1.39-3.24 1.39-5.09 0-6.01999-5.19-10.82999-11.39-10.08999-4.54.55-8.34 4.16-8.89 8.78999-.28 2.32.19 4.54 1.3 6.39.46.83 1.39 1.39 2.41 1.39" fill="#ffc33a"></path><path d="m7.45001 3.39 1.67 2.78h6.10999l1.67-2.78c.37-.65-.09-1.39-.83-1.39h-7.87999c-.74 0-1.2.74-.74 1.39z" fill="#ffa300"></path><path d="m16.06 11.54-1.67 6.2c-.09.19-.28.19-.37 0l-1.67-6.11c-.09-.19-.28-.19-.37 0l-1.67 6.11c-.09.19-.28.19-.37 0l-1.67-6.2m6.95 3.15h2.5m-8.61 0h-2.5" stroke="#fff" stroke-linecap="round" stroke-linejoin="round" stroke-width="1.6"></path></svg>