<svg enable-background="new 0 0 144 144" viewBox="0 0 144 144" xmlns="http://www.w3.org/2000/svg"><path d="m72 137.5c-27.7 0-51.1-13.3-51.1-38.9 0-5.8 1.1-12.6 2.9-19.4 1.4-6.5 4.3-12.6 7.9-30.6 4.3-18.7 17.6-32.8 40.3-32.8 22.3 0 36 14 40.3 33.1 4 18 6.5 24.1 7.9 30.6s2.9 13.7 2.9 19.4c0 25.7-23.4 38.6-51.1 38.6z" fill="#6bdb8e"></path><circle cx="61.9" cy="54" r="5"></circle><circle cx="82.8" cy="54" r="5"></circle><g fill="#4592fb"><path d="m123.1 70.2-11.5 7.9c-1.4 1.1-2.9 1.1-4 0l-15.1-10.4c-1.4-1.1-2.9-1.1-4 0l-15.1 10.4c-1.4 1.1-2.9 1.1-4 0l-15-10.4c-1.4-1.1-2.9-1.1-4 0l-14.4 10.4c-1.4 1.1-2.9 1.1-4 0l-11.5-7.9c-1.8-1.4-4.7-.4-5 2.5-1.5 7.6-1.5 16.2 1.1 24.5 6.5 25.2 30.2 43.9 56.9 43.2 31.7-.4 56.9-25.9 56.9-57.6 0-3.2-.4-7.2-1.1-10.4-1.1-2.2-4-3.6-6.2-2.2z"></path><path d="m116.6 35.6c-7.9-21.9-26.6-31.6-44.6-31.6s-36.4 9.7-45 31.7c-.4 1.4 0 2.9 1.1 4l11.5 6.5c1.1 1.1 2.5 1.1 3.2 0 3.2-1.8 8.6-5.8 11.5-7.6 1.1-1.1 2.5-1.1 3.2 0l12.2 8.6c.4.4 1.1.4 1.8.4 1.1 0 1.4 0 1.8-.4l12.2-8.6c1.1-1.1 2.5-1.1 3.2 0 2.9 1.8 7.9 5.8 11.5 7.6 1.1.4 2.5.4 3.2 0l11.5-6.5c1.7-1.2 2.5-2.6 1.7-4.1z"></path></g></svg>