<svg xmlns="http://www.w3.org/2000/svg" viewBox="0 0 24 24" class=" "><path d="M22 15.6c0-6.2-5.4-11.1-11.7-10.4-4.7.5-8.6 4.3-9.2 9-.3 2.4.2 4.7 1.3 6.6.5.9 1.5 1.5 2.5 1.5h13.2c1 0 2-.5 2.5-1.4.9-1.6 1.4-3.4 1.4-5.3z" fill="#00b8b6"></path><path d="M6.6 2.7l1.8 2.8h6.3l1.8-2.8c.4-.6-.1-1.5-.8-1.5H7.4c-.7.1-1.2.9-.8 1.5z" fill="#00a7a5"></path><path d="M17.6 22.3v-8.8h2c2.4 0 4.4 2 4.4 4.4s-2 4.4-4.4 4.4h-2z" fill="#c5cbcf"></path><circle cx="17.6" cy="17.9" r="4.4" fill="#fff"></circle><path fill="#afb7c0" d="M15.2 17.1H20v1.5h-4.8z"></path></svg>