<svg xmlns="http://www.w3.org/2000/svg" viewBox="0 0 200 200" width="200" height="200" preserveAspectRatio="xMidYMid meet" style="width: 100%; height: 100%; transform: translate3d(0px, 0px, 0px);"><defs><clipPath id="__lottie_element_233"><rect width="200" height="200" x="0" y="0"></rect></clipPath><clipPath id="__lottie_element_235"><path d="M0,0 L200,0 L200,200 L0,200z"></path></clipPath></defs><g clip-path="url(#__lottie_element_233)"><g clip-path="url(#__lottie_element_235)" transform="matrix(1.2599999904632568,0,0,1.2599999904632568,-26,-26)" opacity="1" style="display: block;"><g transform="matrix(1,0,0,1,117.3740005493164,70.1240005493164)" opacity="1" style="display: block;"><g opacity="1" transform="matrix(1,0,0,1,44.875,57.76300048828125)"><path stroke-linecap="round" stroke-linejoin="round" fill-opacity="0" stroke="rgb(38,128,237)" stroke-opacity="1" stroke-width="15" d=" M7.375,-20.26300048828125 C7.375999927520752,-13.104000091552734 6.146999835968018,-5.822999954223633 3.556999921798706,1.2949999570846558 C2.377000093460083,4.535999774932861 0.9589999914169312,7.620999813079834 -0.6700000166893005,10.538000106811523"></path></g></g><g transform="matrix(1,0,0,1,104.73600769042969,12.451995849609375)" opacity="1" style="display: block;"><g opacity="1" transform="matrix(1,0,0,1,49.86800003051758,55.16400146484375)"><path stroke-linecap="round" stroke-linejoin="round" fill-opacity="0" stroke="rgb(0,157,97)" stroke-opacity="1" stroke-width="15" d=" M-12.368000030517578,-17.663999557495117 C-6.502999782562256,-13.557999610900879 -1.2450000047683716,-8.37600040435791 3.0999999046325684,-2.1710000038146973 C5.078000068664551,0.6539999842643738 6.791999816894531,3.5859999656677246 8.248000144958496,6.593999862670898"></path></g></g><g transform="matrix(1,0,0,1,41.32899856567383,-1.9510002136230469)" opacity="1" style="display: block;"><g opacity="1" transform="matrix(1,0,0,1,59.0629997253418,39.393001556396484)"><path stroke-linecap="round" stroke-linejoin="round" fill-opacity="0" stroke="rgb(245,183,46)" stroke-opacity="1" stroke-width="15" d=" M-21.56399917602539,1.8930000066757202 C-14.836999893188477,-0.5559999942779541 -7.574999809265137,-1.8930000066757202 -0.0010000000474974513,-1.8930000066757202 C3.447999954223633,-1.8930000066757202 6.833000183105469,-1.6160000562667847 10.131999969482422,-1.0820000171661377"></path></g></g><g transform="matrix(1,0,0,1,-3.36199951171875,11.988998413085938)" opacity="1" style="display: block;"><g opacity="1" transform="matrix(1,0,0,1,49.86899948120117,55.16400146484375)"><path stroke-linecap="round" stroke-linejoin="round" fill-opacity="0" stroke="rgb(240,124,1)" stroke-opacity="1" stroke-width="15" d=" M3.374000072479248,-10.005999565124512 C1.0460000038146973,-7.610000133514404 -1.121999979019165,-4.997000217437744 -3.1010000705718994,-2.1710000038146973 C-7.445000171661377,4.0329999923706055 -10.515000343322754,10.748000144958496 -12.368000030517578,17.663999557495117"></path></g></g><g transform="matrix(1,0,0,1,-6.052997589111328,70.1240005493164)" opacity="1" style="display: block;"><g opacity="1" transform="matrix(1,0,0,1,44.875,57.76300048828125)"><path stroke-linecap="round" stroke-linejoin="round" fill-opacity="0" stroke="rgb(223,41,57)" stroke-opacity="1" stroke-width="15" d=" M-6.260000228881836,-8.503000259399414 C-5.632999897003174,-5.2210001945495605 -4.736000061035156,-1.9459999799728394 -3.556999921798706,1.2949999570846558 C-0.9660000205039978,8.411999702453613 2.7739999294281006,14.779000282287598 7.375999927520752,20.26300048828125"></path></g></g><g transform="matrix(1,0,0,1,32.952003479003906,51.40299606323242)" opacity="1" style="display: block;"><g opacity="1" transform="matrix(1,0,0,1,67.72799682617188,56.255001068115234)"><path stroke-linecap="round" stroke-linejoin="round" fill-opacity="0" stroke="rgb(77,89,104)" stroke-opacity="1" stroke-width="15" d="M0 0"></path></g></g></g></g></svg>