<svg xmlns="http://www.w3.org/2000/svg" viewBox="0 0 200 200" width="200" height="200" preserveAspectRatio="xMidYMid meet" style="width: 100%; height: 100%; transform: translate3d(0px, 0px, 0px);"><defs><clipPath id="__lottie_element_8429"><rect width="200" height="200" x="0" y="0"></rect></clipPath><clipPath id="__lottie_element_8431"><path d="M0,0 L200,0 L200,200 L0,200z"></path></clipPath></defs><g clip-path="url(#__lottie_element_8429)"><g clip-path="url(#__lottie_element_8431)" transform="matrix(1.059999942779541,0,0,1.059999942779541,-2.4999923706054688,-5.999992370605469)" opacity="1" style="display: block;"><g transform="matrix(1,0,0,1,21.017005920410156,20.1669979095459)" opacity="1" style="display: block;"><g opacity="1" transform="matrix(1,0,0,1,75.85399627685547,29.7450008392334)"><path fill="rgb(29,135,249)" fill-opacity="1" d=" M-75.60399627685547,29.4950008392334 C-75.60399627685547,29.4950008392334 -75.60399627685547,-10.395000457763672 -75.60399627685547,-10.395000457763672 C-75.60399627685547,-20.944000244140625 -67.0530014038086,-29.4950008392334 -56.50400161743164,-29.4950008392334 C-56.50400161743164,-29.4950008392334 57.775001525878906,-29.4950008392334 57.775001525878906,-29.4950008392334 C67.62200164794922,-29.4950008392334 75.60399627685547,-21.51300048828125 75.60399627685547,-11.666000366210938 C75.60399627685547,-11.666000366210938 75.60399627685547,29.4950008392334 75.60399627685547,29.4950008392334 C75.60399627685547,29.4950008392334 -75.60399627685547,29.4950008392334 -75.60399627685547,29.4950008392334z"></path></g></g><g transform="matrix(1,0,0,1,40.913002014160156,36.198997497558594)" opacity="1" style="display: block;"><g opacity="1" transform="matrix(1,0,0,1,55.95800018310547,42.11199951171875)"><path fill="rgb(219,223,226)" fill-opacity="1" d=" M-55.70800018310547,-33.90399932861328 C-55.70800018310547,-33.90399932861328 -55.70800018310547,41.861000061035156 -55.70800018310547,41.861000061035156 C-55.70800018310547,41.861000061035156 55.70800018310547,41.861000061035156 55.70800018310547,41.861000061035156 C55.70800018310547,41.861000061035156 55.70800018310547,-33.90399932861328 55.70800018310547,-33.90399932861328 C55.70800018310547,-38.29899978637695 52.14500045776367,-41.861000061035156 47.749000549316406,-41.861000061035156 C47.749000549316406,-41.861000061035156 -47.750999450683594,-41.861000061035156 -47.750999450683594,-41.861000061035156 C-52.145999908447266,-41.861000061035156 -55.70800018310547,-38.29899978637695 -55.70800018310547,-33.90399932861328z"></path></g></g><g transform="matrix(1,0,0,1,32.808998107910156,51.42000198364258)" opacity="1" style="display: block;"><g opacity="1" transform="matrix(1,0,0,1,64.06300354003906,48.20199966430664)"><path fill="rgb(255,255,255)" fill-opacity="1" d=" M-63.8129997253418,-39.99399948120117 C-63.8129997253418,-39.99399948120117 -63.8129997253418,47.95199966430664 -63.8129997253418,47.95199966430664 C-63.8129997253418,47.95199966430664 63.8129997253418,47.95199966430664 63.8129997253418,47.95199966430664 C63.8129997253418,47.95199966430664 63.8129997253418,-39.99399948120117 63.8129997253418,-39.99399948120117 C63.8129997253418,-44.388999938964844 60.25,-47.95199966430664 55.854000091552734,-47.95199966430664 C55.854000091552734,-47.95199966430664 -55.85499954223633,-47.95199966430664 -55.85499954223633,-47.95199966430664 C-60.25,-47.95199966430664 -63.8129997253418,-44.388999938964844 -63.8129997253418,-39.99399948120117z"></path><path fill="rgb(255,255,255)" fill-opacity="1" d=" M-63.8129997253418,-39.99399948120117 C-63.8129997253418,-39.99399948120117 -63.8129997253418,47.95199966430664 -63.8129997253418,47.95199966430664 C-63.8129997253418,47.95199966430664 63.8129997253418,47.95199966430664 63.8129997253418,47.95199966430664 C63.8129997253418,47.95199966430664 63.8129997253418,-39.99399948120117 63.8129997253418,-39.99399948120117 C63.8129997253418,-44.388999938964844 60.25,-47.95199966430664 55.854000091552734,-47.95199966430664 C55.854000091552734,-47.95199966430664 -55.85499954223633,-47.95199966430664 -55.85499954223633,-47.95199966430664 C-60.25,-47.95199966430664 -63.8129997253418,-44.388999938964844 -63.8129997253418,-39.99399948120117z"></path></g></g><g transform="matrix(1,0,0,1,21.01800537109375,69.60700225830078)" opacity="1" style="display: block;"><g opacity="1" transform="matrix(1,0,0,1,75.85399627685547,55.112998962402344)"><path fill="rgb(119,185,255)" fill-opacity="1" d=" M-66.05400085449219,-54.862998962402344 C-66.05400085449219,-54.862998962402344 66.05400085449219,-54.862998962402344 66.05400085449219,-54.862998962402344 C71.3290023803711,-54.862998962402344 75.60399627685547,-50.58700180053711 75.60399627685547,-45.3129997253418 C75.60399627685547,-45.3129997253418 75.60399627685547,37.034000396728516 75.60399627685547,37.034000396728516 C75.60399627685547,46.88100051879883 67.62200164794922,54.862998962402344 57.775001525878906,54.862998962402344 C57.775001525878906,54.862998962402344 -57.775001525878906,54.862998962402344 -57.775001525878906,54.862998962402344 C-67.62200164794922,54.862998962402344 -75.60399627685547,46.88100051879883 -75.60399627685547,37.034000396728516 C-75.60399627685547,37.034000396728516 -75.60399627685547,-45.3129997253418 -75.60399627685547,-45.3129997253418 C-75.60399627685547,-50.58700180053711 -71.3280029296875,-54.862998962402344 -66.05400085449219,-54.862998962402344z"></path></g><g opacity="1" transform="matrix(1,0,0,1,75.85399627685547,37.87200164794922)"><path fill="rgb(29,135,249)" fill-opacity="1" d=" M12.366999626159668,0 C12.366999626159668,6.829999923706055 6.829999923706055,12.366999626159668 0,12.366999626159668 C-6.829999923706055,12.366999626159668 -12.366999626159668,6.829999923706055 -12.366999626159668,0 C-12.366999626159668,-6.829999923706055 -6.829999923706055,-12.366999626159668 0,-12.366999626159668 C6.829999923706055,-12.366999626159668 12.366999626159668,-6.829999923706055 12.366999626159668,0z"></path></g><g opacity="1" transform="matrix(1,0,0,1,75.85399627685547,68.3489990234375)"><path fill="rgb(29,135,249)" fill-opacity="1" d=" M0,-12.251999855041504 C-18.7450008392334,-12.251999855041504 -26.035999298095703,-0.32199999690055847 -26.035999298095703,5.22599983215332 C-26.035999298095703,10.774999618530273 -10.515999794006348,12.251999855041504 0,12.251999855041504 C10.515999794006348,12.251999855041504 26.035999298095703,10.774999618530273 26.035999298095703,5.22599983215332 C26.035999298095703,-0.32199999690055847 18.7450008392334,-12.251999855041504 0,-12.251999855041504z"></path></g></g></g></g></svg>